# 3ds Max Wavefront OBJ Exporter v0.99 - (c)2007 guruware
# File Created: 28.05.2025 10:38:40

mtllib prisma2.mtl

#
# object mesh_id44
#

v  0.3467 0.1612 -0.3305
v  -0.3467 0.0282 -0.3305
v  -0.3467 0.1612 -0.3305
v  0.3467 0.0282 -0.3305
v  -0.3467 0.1612 0.3305
v  0.3467 0.0282 0.3305
v  0.3467 0.1612 0.3305
v  -0.3467 0.0282 0.3305
# 8 vertices

vn -0.0000 0.0001 -150.6381
vn 0.0000 -0.0001 150.6381
vn 726.8350 0.0000 -0.0000
vn -726.8350 -0.0000 0.0000
vn 0.0000 748.6220 0.0003
vn -0.0000 -748.6220 -0.0003
# 6 vertex normals

vt 0.0000 0.0000 0.0000
# 1 texture coords

o mesh_id44
g mesh_id44
usemtl Material__47
s 1
f 1/1/1 2/1/1 3/1/1 
f 1/1/1 4/1/1 2/1/1 
f 5/1/2 6/1/2 7/1/2 
f 5/1/2 8/1/2 6/1/2 
f 7/1/3 4/1/3 1/1/3 
f 7/1/3 6/1/3 4/1/3 
f 3/1/4 8/1/4 5/1/4 
f 3/1/4 2/1/4 8/1/4 
f 3/1/5 7/1/5 1/1/5 
f 3/1/5 5/1/5 7/1/5 
f 8/1/6 4/1/6 6/1/6 
f 8/1/6 2/1/6 4/1/6 
# 12 faces

