# 3ds Max Wavefront OBJ Exporter v0.99 - (c)2007 guruware
# File Created: 28.05.2025 10:39:26

mtllib prismaC.mtl

#
# object mesh_id75
#

v  2.2964 0.0309 -0.6432
v  -2.2964 -0.0309 -0.6432
v  -2.2964 0.0309 -0.6432
v  2.2964 -0.0309 -0.6432
v  -2.2964 0.0309 0.6562
v  2.2964 -0.0309 0.6562
v  2.2964 0.0309 0.6562
v  -2.2964 -0.0309 0.6562
# 8 vertices

vn 0.0000 0.0000 -1.0000
vn 0.0000 0.0000 1.0000
vn 1.0000 0.0000 -0.0000
vn -1.0000 0.0000 -0.0000
vn 0.0000 1.0000 -0.0000
vn 0.0000 -1.0000 -0.0000
# 6 vertex normals

vt 0.5102 -0.2570 0.0000
vt 0.7375 -0.6558 0.0000
vt 0.3767 -0.6026 0.0000
vt 0.6898 -0.2248 0.0000
vt 0.2096 -0.3672 0.0000
vt 0.0113 -0.0002 0.0000
vt 0.3490 -0.0299 0.0000
vt 0.0001 -0.4637 0.0000
vt 0.3510 -0.0069 0.0000
vt 0.7772 -0.0032 0.0000
vt 0.3679 -0.5672 0.0000
vt 0.0896 -0.6637 0.0000
vt 0.9999 -0.4934 0.0000
# 13 texture coords

o mesh_id75
g mesh_id75
usemtl Material
s 1
f 1/1/1 2/2/1 3/3/1 
f 1/1/1 4/4/1 2/2/1 
f 5/5/2 6/6/2 7/7/2 
f 5/5/2 8/8/2 6/6/2 
f 7/9/3 4/4/3 1/1/3 
f 7/9/3 6/10/3 4/4/3 
f 3/11/4 8/8/4 5/5/4 
f 3/11/4 2/12/4 8/8/4 
f 3/3/5 7/9/5 1/1/5 
f 3/11/5 5/5/5 7/7/5 
f 8/13/6 4/4/6 6/10/6 
f 8/13/6 2/2/6 4/4/6 
# 12 faces

