# 3ds Max Wavefront OBJ Exporter v0.99 - (c)2007 guruware
# File Created: 28.05.2025 10:39:50

mtllib plano.mtl

#
# object mesh_id62
#

v  2.8347 1.2306 -0.4395
v  1.6523 0.5098 -0.4395
v  1.6523 1.2306 -0.4395
v  2.8347 0.5098 -0.4395
v  1.6523 1.2306 -0.3888
v  2.8347 0.5098 -0.3888
v  2.8347 1.2306 -0.3888
v  1.6523 0.5098 -0.3888
# 8 vertices

vn 0.0000 0.0000 -1.0000
vn 0.0000 0.0000 1.0000
vn 1.0000 0.0000 -0.0000
vn -1.0000 0.0000 -0.0000
vn 0.0000 1.0000 -0.0000
vn 0.0000 -1.0000 -0.0000
# 6 vertex normals

vt 0.0000 1.0000 1.0000
vt 1.0000 0.0000 1.0000
vt 1.0000 1.0000 1.0000
vt 0.0000 0.0000 1.0000
vt 0.0000 1.0000 0.0000
vt 1.0000 0.0000 0.0000
vt 1.0000 1.0000 0.0000
vt 0.0000 0.0000 0.0000
vt 0.0000 0.0000 -0.0000
# 9 texture coords

o mesh_id62
g mesh_id62
usemtl Material__51
s 1
f 1/1/1 2/2/1 3/3/1 
f 1/1/1 4/4/1 2/2/1 
f 5/5/2 6/6/2 7/7/2 
f 5/5/2 8/8/2 6/6/2 
f 7/1/3 4/2/3 1/3/3 
f 7/1/3 6/4/3 4/2/3 
f 3/5/4 8/6/4 5/7/4 
f 3/5/4 2/9/4 8/6/4 
f 3/1/5 7/2/5 1/3/5 
f 3/1/5 5/4/5 7/2/5 
f 8/6/6 4/5/6 6/8/6 
f 8/6/6 2/7/6 4/5/6 
# 12 faces

